<svg xmlns="http://www.w3.org/2000/svg" viewBox="0 0 760 170" role="img" aria-label="Alibaba.com">
  <title>Alibaba.com</title>
  <rect width="760" height="170" fill="none"/>
  <g fill="#ff6a00">
    <g transform="translate(18 22) scale(1.02)">
      <path d="M130.5 6.8c25.6 3.5 41.5 14.7 45.7 31.4 4.7 18.5-7.4 42.6-32.8 66.2l-27.4 25.5c-4.2 3.9-2.2 8.3 3.8 7.5l45.2-6.1c7.8-1.1 10.5 7.8 3.2 11.3-20.9 10-72.6 16.7-86 4.9-8.7-7.7-3.9-21.4 13-37.1l30.8-28.6c18.9-17.6 27.6-33.9 24.4-46.1-3.2-12.3-18-19.2-40.2-19.2-41.8 0-80.6 26.4-86.6 59-4.1 22.4 9.2 42.7 34.7 54.5 7.5 3.5 4.9 13.4-3.1 11.1-34.3-9.7-55.8-35.5-50.5-64.2C12.1 37.2 64.4 5.7 120.2 5.7c3.5 0 6.9.4 10.3 1.1Z"/>
      <path d="M48.6 90.8c31.5-14.6 67.8-23.5 104.7-25.2 7.3-.3 9.8 8.9 3.4 12.7-28.5 17.1-59.7 29.8-92.2 37.4l13.7 17.7c4.3 5.5-.8 12.7-7.6 10.9l-52.4-14.1c-5.7-1.5-7-9-2.2-12.4l47.7-33.1c6.1-4.2 13.7 1.2 11.9 8.4l-3.2 12.2c-8.2 2.4-16.2 4.9-23.8 7.5v-22Z"/>
      <path fill="#fff" d="M33.3 116.3c37.5-20.9 78.3-33.2 120.8-36.2-28.9 16.2-60.2 27.5-93.9 34.1l10.8 14-37.7-11.9Z"/>
    </g>
    <text x="218" y="112" font-family="Arial, Helvetica, sans-serif" font-size="76" font-weight="800" letter-spacing="0">Alibaba.com</text>
  </g>
</svg>
